M48
; DRILL file {KiCad 9.0.0} date 2025-03-31T14:36:38+0530
; FORMAT={3:3/ absolute / metric / suppress leading zeros}
; #@! TF.CreationDate,2025-03-31T14:36:38+05:30
; #@! TF.GenerationSoftware,Kicad,Pcbnew,9.0.0
; #@! TF.FileFunction,Plated,1,2,PTH
FMAT,2
METRIC,TZ
; #@! TA.AperFunction,Plated,PTH,ViaDrill
T1C0.300
; #@! TA.AperFunction,Plated,PTH,ComponentDrill
T2C0.700
; #@! TA.AperFunction,Plated,PTH,ComponentDrill
T3C0.800
; #@! TA.AperFunction,Plated,PTH,ComponentDrill
T4C0.900
; #@! TA.AperFunction,Plated,PTH,ComponentDrill
T5C1.000
; #@! TA.AperFunction,Plated,PTH,ComponentDrill
T6C3.500
%
G90
G05
T1
X139000Y-128000
X141000Y-125000
X148500Y-126500
X151000Y-113500
X151000Y-123000
X151000Y-123000
X155500Y-100000
X159500Y-107000
X166500Y-110000
X166500Y-121500
X169500Y-130000
X170000Y-125000
X175000Y-129500
X178500Y-124000
X179000Y-103000
X183500Y-121500
X196000Y-159500
X213500Y-86500
X216500Y-93000
X220500Y-87000
X226000Y-133500
X235500Y-134500
X242000Y-109000
X245500Y-86500
X245500Y-106000
X248500Y-90000
X250000Y-85500
X251500Y-94500
X252500Y-118000
T2
X138260Y-113500
X143340Y-113500
X170000Y-152000
X172540Y-152000
T3
X137150Y-104500
X147310Y-104500
X172100Y-104500
X174640Y-104500
T4
X120000Y-115500
X122540Y-115500
T5
X91420Y-74055
X91420Y-78055
X91420Y-85055
X91420Y-89055
X161840Y-60055
X164380Y-60055
X166920Y-60055
X169460Y-60055
X172000Y-60055
X174540Y-60055
X177080Y-60055
X179620Y-60055
X182160Y-60055
X184700Y-60055
X187240Y-60055
X189780Y-60055
X192320Y-60055
X194860Y-60055
X197400Y-60055
X199940Y-60055
X256390Y-78450
X256390Y-80990
X256390Y-83530
X256390Y-86070
X256390Y-88610
X256390Y-91150
X256390Y-93690
X256390Y-96230
X256390Y-98770
X256390Y-101310
X256390Y-103850
X256390Y-106390
X256390Y-108930
X256390Y-111470
X256390Y-114010
X271630Y-78450
X271630Y-80990
X271630Y-83530
X271630Y-86070
X271630Y-88610
X271630Y-91150
X271630Y-93690
X271630Y-96230
X271630Y-98770
X271630Y-101310
X271630Y-103850
X271630Y-106390
X271630Y-108930
X271630Y-111470
X271630Y-114010
T6
X92420Y-61055
X92420Y-98055
X207420Y-61055
X207420Y-98055
M30
